<svg version="1.0" xmlns="http://www.w3.org/2000/svg"
 width="360.000000pt" height="360.000000pt" viewBox="0 0 360.000000 360.000000"
 preserveAspectRatio="xMidYMid meet">

<g transform="translate(0.000000,360.000000) scale(0.100000,-0.100000)"
fill="#000000" stroke="none">
<path d="M873 3053 c-5 -21 -14 -37 -20 -36 -5 1 -15 -30 -22 -70 -7 -40 -16
-92 -21 -117 -5 -25 -11 -61 -13 -81 l-5 -36 181 1 c100 1 196 -3 212 -7 19
-5 25 -4 16 1 -11 8 -11 10 0 15 10 4 10 6 2 6 -7 1 -13 8 -13 16 0 17 -1 17
-185 15 l-129 -1 19 23 c63 75 162 137 298 188 55 21 212 48 287 51 145 5 337
-48 452 -124 87 -58 223 -191 275 -270 75 -112 134 -240 158 -342 22 -88 45
-278 36 -287 -4 -4 -22 -3 -41 2 -63 18 -251 24 -326 10 -158 -30 -338 -139
-404 -245 -57 -92 -64 -195 -20 -273 68 -118 213 -177 369 -152 69 11 105 24
200 69 93 43 236 224 265 333 8 29 19 66 25 81 6 16 11 42 11 58 0 16 5 29 11
29 18 0 109 -59 165 -106 28 -24 54 -41 57 -37 4 3 7 1 7 -6 0 -19 51 -77 64
-73 6 2 8 0 4 -4 -11 -11 53 -123 67 -117 8 2 26 -30 48 -84 36 -89 50 -103
22 -22 -34 98 -119 238 -161 265 -13 9 -24 22 -24 29 0 7 -17 28 -38 46 -70
62 -135 114 -151 121 -13 5 -14 7 -1 7 23 1 108 -46 172 -95 31 -24 60 -44 64
-44 13 0 -29 40 -65 62 -20 12 -52 34 -71 50 -19 15 -42 28 -50 28 -9 0 -24 6
-35 14 -11 7 -32 16 -47 20 -25 6 -28 11 -28 49 0 74 -27 220 -55 302 -80 230
-199 399 -390 554 -122 99 -225 148 -380 180 -237 49 -513 -20 -706 -178 -41
-34 -77 -61 -81 -61 -4 0 -5 26 -2 58 3 40 2 51 -5 37 -5 -11 -10 -30 -10 -42
-1 -13 -6 -23 -12 -23 -6 0 -9 6 -6 14 3 8 9 31 13 50 3 20 10 36 14 36 5 0
12 26 15 58 4 31 9 65 11 75 3 9 1 17 -4 17 -6 0 -14 -17 -19 -37z m957 -73
c0 -5 -4 -10 -9 -10 -6 0 -13 5 -16 10 -3 6 1 10 9 10 9 0 16 -4 16 -10z m479
-439 c42 -68 101 -227 120 -318 6 -28 14 -95 17 -149 6 -81 5 -96 -7 -92 -8 3
-13 11 -11 18 7 28 -21 210 -45 295 -24 86 -66 184 -116 270 -13 22 -34 58
-46 80 l-23 40 36 -39 c19 -21 53 -68 75 -105z m-186 -548 c-7 -2 -21 -2 -30
0 -10 3 -4 5 12 5 17 0 24 -2 18 -5z m-88 -10 c-108 -25 -214 -82 -293 -158
-69 -65 -94 -109 -111 -197 -9 -42 -9 -67 -1 -98 11 -42 6 -69 -6 -34 -4 10
-12 33 -19 50 -16 38 -3 129 26 185 27 53 123 148 185 183 61 34 180 76 214
75 20 -1 21 -2 5 -6z m275 -18 c40 -8 75 -17 79 -20 10 -5 -12 -148 -29 -195
-80 -215 -284 -379 -473 -380 -64 0 -111 23 -168 83 -69 71 -86 155 -48 233
50 105 189 209 344 258 125 39 188 44 295 21z m130 -55 c0 -131 -95 -334 -195
-416 -58 -47 -71 -37 -19 14 90 87 176 259 191 380 6 55 23 72 23 22z"/>
<path d="M851 3044 c0 -11 3 -14 6 -6 3 7 2 16 -1 19 -3 4 -6 -2 -5 -13z"/>
<path d="M2816 1752 c35 -29 91 -114 133 -202 23 -46 41 -77 41 -69 0 51 -151
289 -183 289 -6 0 -3 -8 9 -18z"/>
<path d="M2850 1545 c0 -14 49 -132 50 -119 0 16 -32 108 -41 119 -6 6 -9 6
-9 0z"/>
<path d="M2997 1430 c11 -62 24 -90 18 -41 -3 24 -10 51 -15 60 -7 11 -8 5 -3
-19z"/>
<path d="M2901 1400 c0 -8 4 -33 9 -55 6 -22 11 -87 11 -145 1 -88 3 -99 12
-70 6 24 6 68 -2 138 -11 91 -29 173 -30 132z"/>
<path d="M2941 1385 c0 -5 6 -37 14 -70 14 -58 14 -59 9 -11 -5 44 -22 106
-23 81z"/>
<path d="M3026 1251 c2 -52 6 -96 9 -99 8 -8 5 108 -4 153 -6 28 -7 12 -5 -54z"/>
<path d="M2972 1150 c0 -85 1 -90 9 -47 6 28 6 66 0 95 -8 42 -9 37 -9 -48z"/>
<path d="M3016 1084 c-4 -20 -5 -38 -2 -41 2 -3 8 11 12 31 3 21 4 39 1 42 -2
3 -8 -11 -11 -32z"/>
<path d="M2917 1063 c-3 -10 -8 -28 -12 -40 -3 -13 -2 -23 3 -23 5 0 12 17 15
37 7 39 2 57 -6 26z"/>
<path d="M2964 1006 c-3 -21 -4 -39 -1 -42 2 -3 8 11 11 32 4 20 5 38 2 41 -2
3 -8 -11 -12 -31z"/>
<path d="M2892 950 c0 -14 2 -19 5 -12 2 6 2 18 0 25 -3 6 -5 1 -5 -13z"/>
<path d="M2952 908 c-7 -7 -12 -17 -12 -22 0 -19 -73 -130 -132 -200 -32 -38
-56 -72 -53 -75 11 -11 108 112 167 213 53 89 63 117 30 84z"/>
<path d="M2846 843 c-14 -32 -36 -74 -47 -93 l-21 -35 21 25 c24 28 84 150 78
156 -2 3 -16 -21 -31 -53z"/>
<path d="M2739 663 c-13 -16 -12 -17 4 -4 16 13 21 21 13 21 -2 0 -10 -8 -17
-17z"/>
<path d="M2714 578 l-19 -23 23 19 c12 11 22 21 22 23 0 8 -8 2 -26 -19z"/>
<path d="M2575 500 c-3 -6 1 -7 9 -4 18 7 21 14 7 14 -6 0 -13 -4 -16 -10z"/>
</g>
</svg>
