<?xml version="1.0" encoding="UTF-8" standalone="no" ?>
<!DOCTYPE svg PUBLIC "-//W3C//DTD SVG 1.1//EN" "http://www.w3.org/Graphics/SVG/1.1/DTD/svg11.dtd">
<svg xmlns="http://www.w3.org/2000/svg" xmlns:xlink="http://www.w3.org/1999/xlink" version="1.1" width="1080" height="1080" viewBox="0 0 1080 1080" xml:space="preserve">
<desc>Created with Fabric.js 5.2.4</desc>
<defs>
</defs>
<g transform="matrix(1 0 0 1 540 540)" id="4022ece3-5a56-4c24-a513-1c54fe492d9a"  >
<rect style="stroke: none; stroke-width: 1; stroke-dasharray: none; stroke-linecap: butt; stroke-dashoffset: 0; stroke-linejoin: miter; stroke-miterlimit: 4; fill: rgb(255,255,255); fill-rule: nonzero; opacity: 1; visibility: hidden;" vector-effect="non-scaling-stroke"  x="-540" y="-540" rx="0" ry="0" width="1080" height="1080" />
</g>
<g transform="matrix(1 0 0 1 540 540)" id="883982e6-cf45-4641-8ca5-6a9eed1c2246"  >
</g>
<g transform="matrix(1.73 0 0 1.77 540 540)"  >
<g style="" vector-effect="non-scaling-stroke"   >
		<g transform="matrix(0.1 0 0 -0.1 0 0)"  >
<path style="stroke: none; stroke-width: 1; stroke-dasharray: none; stroke-linecap: butt; stroke-dashoffset: 0; stroke-linejoin: miter; stroke-miterlimit: 4; fill: rgb(245,245,245); fill-rule: nonzero; opacity: 1;" vector-effect="non-scaling-stroke"  transform=" translate(-2600.22, -3164.5)" d="M 2499 6074 C 2447 6015 2400 5962 2395 5956 C 2389 5950 2353 5909 2315 5865 C 2276 5821 2224 5763 2199 5735 C 2173 5708 2138 5668 2120 5648 C 2102 5627 2080 5610 2070 5610 C 2061 5610 2033 5624 2009 5642 C 1985 5660 1952 5681 1935 5690 C 1873 5723 1765 5783 1755 5790 C 1750 5794 1707 5817 1660 5840 C 1613 5864 1564 5891 1550 5900 C 1536 5910 1489 5937 1445 5960 C 1401 5983 1333 6020 1293 6042 C 1254 6063 1220 6077 1217 6073 C 1214 6069 1193 6016 1170 5955 C 1074 5706 978 5461 950 5395 C 868 5196 845 5075 845 4830 C 845 4619 857 4531 907 4395 C 952 4272 952 4276 873 4251 C 767 4217 602 4131 544 4077 C 515 4051 480 4006 466 3978 L 440 3926 L 440 3241 C 441 2863 445 2524 450 2485 C 500 2113 592 1848 771 1557 C 888 1369 1076 1156 1235 1033 C 1268 1007 1297 983 1300 979 C 1316 957 1516 832 1628 775 L 1720 729 L 1722 442 L 1725 155 L 1818 152 L 1910 149 L 1910 400 C 1910 537 1914 650 1918 650 C 1926 650 2080 608 2135 591 C 2226 562 2393 546 2600 546 C 2845 546 2959 560 3157 616 C 3224 635 3281 650 3284 650 C 3287 650 3291 539 3292 403 L 3295 155 L 3388 152 L 3480 149 L 3480 422 C 3480 572 3483 704 3486 716 C 3489 729 3513 747 3553 765 C 3644 806 3853 939 3945 1013 C 4055 1102 4229 1277 4303 1374 C 4551 1699 4690 2034 4745 2445 C 4764 2585 4766 3913 4748 3957 C 4699 4072 4562 4169 4342 4246 C 4297 4261 4260 4279 4260 4285 C 4260 4290 4269 4320 4280 4350 C 4338 4505 4373 4714 4367 4862 C 4360 5051 4328 5198 4247 5402 C 4223 5464 4163 5616 4115 5740 C 4067 5864 4022 5979 4015 5995 C 4008 6012 3999 6035 3995 6048 C 3986 6078 3965 6076 3900 6037 C 3870 6019 3807 5985 3760 5961 C 3713 5937 3671 5914 3665 5910 C 3660 5905 3628 5887 3595 5869 C 3562 5852 3515 5826 3490 5812 C 3465 5798 3396 5760 3335 5727 C 3275 5694 3209 5654 3189 5639 C 3169 5623 3143 5610 3132 5610 C 3120 5610 3091 5634 3058 5672 C 3029 5706 2998 5741 2990 5750 C 2982 5759 2946 5799 2910 5840 C 2874 5881 2822 5939 2795 5970 C 2767 6000 2713 6060 2676 6103 C 2638 6145 2604 6180 2601 6180 C 2597 6180 2551 6132 2499 6074 z M 2737 5747 C 3106 5337 3138 5293 3221 5068 C 3285 4895 3306 4682 3276 4531 C 3262 4462 3261 4445 3272 4435 C 3290 4417 3409 4377 3424 4383 C 3447 4392 3473 4520 3478 4646 C 3486 4865 3442 5064 3338 5275 C 3311 5330 3279 5390 3268 5408 C 3252 5434 3250 5444 3260 5455 C 3275 5473 3403 5550 3525 5615 C 3575 5641 3620 5666 3625 5670 C 3631 5675 3676 5699 3725 5725 C 3775 5751 3829 5781 3847 5792 C 3885 5815 3881 5819 3930 5690 C 3967 5593 4046 5390 4065 5345 C 4137 5172 4180 4981 4180 4835 C 4180 4752 4146 4547 4119 4465 C 4046 4247 3879 4077 3671 4007 C 3617 3989 3582 3985 3480 3985 C 3349 3985 3220 4009 3220 4034 C 3220 4041 3232 4057 3246 4071 C 3280 4102 3330 4170 3330 4184 C 3330 4195 3201 4280 3184 4280 C 3179 4280 3157 4258 3136 4232 C 2926 3982 2580 3908 2290 4052 C 2133 4130 1994 4296 1939 4469 C 1900 4592 1903 4803 1946 4960 C 2008 5186 2104 5348 2311 5576 C 2352 5621 2426 5703 2475 5760 C 2582 5883 2589 5890 2600 5890 C 2604 5890 2666 5826 2737 5747 z M 1485 5720 C 1540 5691 1590 5664 1595 5660 C 1601 5656 1641 5634 1685 5611 C 1804 5549 1939 5467 1944 5453 C 1947 5447 1921 5389 1888 5324 C 1796 5148 1752 5009 1730 4830 C 1695 4537 1771 4270 1943 4083 C 1994 4027 1986 4018 1870 3994 C 1762 3973 1613 3979 1522 4010 C 1381 4057 1213 4193 1151 4310 C 1068 4465 1030 4633 1030 4841 C 1030 5010 1061 5166 1124 5315 C 1131 5332 1147 5372 1160 5405 C 1172 5438 1188 5479 1196 5495 C 1212 5530 1280 5708 1280 5714 C 1280 5716 1289 5739 1300 5765 L 1320 5812 L 1352 5792 C 1370 5781 1430 5749 1485 5720 z M 1124 4043 C 1225 3947 1255 3925 1345 3881 C 1486 3812 1540 3798 1687 3792 C 1862 3786 1978 3810 2122 3881 C 2158 3899 2159 3899 2216 3874 C 2378 3803 2411 3796 2600 3796 C 2788 3796 2822 3803 2981 3873 C 3021 3891 3042 3895 3054 3888 C 3063 3883 3121 3860 3183 3837 L 3295 3796 L 3470 3795 C 3628 3795 3651 3797 3710 3818 C 3877 3878 3995 3952 4101 4062 C 4151 4114 4139 4112 4238 4081 C 4346 4047 4493 3974 4533 3934 C 4571 3897 4575 3875 4551 3841 C 4501 3771 4231 3663 3985 3614 C 3720 3562 3573 3540 3300 3513 C 3042 3488 2152 3488 1895 3514 C 1796 3524 1679 3535 1635 3540 C 1590 3544 1545 3550 1533 3554 C 1522 3558 1461 3569 1399 3580 C 996 3650 702 3755 647 3850 C 630 3878 630 3883 644 3905 C 668 3941 718 3976 806 4017 C 868 4045 1025 4105 1049 4109 C 1052 4110 1085 4080 1124 4043 z M 742 3565 C 795 3540 844 3520 853 3520 C 862 3520 871 3516 874 3511 C 877 3506 892 3500 907 3497 C 923 3494 976 3480 1025 3465 C 1178 3421 1338 3389 1528 3366 C 1769 3336 1815 3330 1913 3320 C 2309 3279 3105 3289 3470 3340 C 3506 3345 3580 3354 3635 3360 C 3725 3371 3844 3390 4000 3421 C 4070 3434 4277 3492 4325 3511 C 4336 3515 4356 3522 4370 3526 C 4384 3529 4430 3550 4473 3571 C 4516 3593 4556 3610 4561 3610 C 4573 3610 4573 2651 4560 2519 C 4550 2413 4526 2269 4509 2215 C 4383 1801 4248 1567 3984 1305 C 3693 1016 3334 829 2931 760 C 2750 728 2437 731 2248 765 C 1653 872 1144 1248 856 1791 C 798 1902 765 1981 720 2125 C 684 2241 683 2245 659 2375 C 639 2476 637 2532 633 3033 C 629 3526 630 3610 643 3610 C 646 3610 690 3590 742 3565 z" stroke-linecap="round" />
</g>
		<g transform="matrix(0.1 0 0 -0.1 -98.02 41.37)"  >
<path style="stroke: none; stroke-width: 1; stroke-dasharray: none; stroke-linecap: butt; stroke-dashoffset: 0; stroke-linejoin: miter; stroke-miterlimit: 4; fill: rgb(245,245,245); fill-rule: nonzero; opacity: 1;" vector-effect="non-scaling-stroke"  transform=" translate(-1620, -2750.76)" d="M 1130 2959 C 1130 2868 1191 2726 1261 2652 C 1352 2557 1436 2521 1580 2513 C 1691 2507 1769 2519 1844 2555 C 1980 2619 2084 2773 2104 2943 L 2110 2990 L 2011 2990 L 1913 2990 L 1907 2941 C 1897 2856 1850 2781 1780 2738 C 1668 2670 1452 2702 1387 2798 C 1355 2844 1320 2932 1320 2965 C 1320 2990 1319 2990 1225 2990 L 1130 2990 L 1130 2959 z" stroke-linecap="round" />
</g>
		<g transform="matrix(0.1 0 0 -0.1 98.13 41.29)"  >
<path style="stroke: none; stroke-width: 1; stroke-dasharray: none; stroke-linecap: butt; stroke-dashoffset: 0; stroke-linejoin: miter; stroke-miterlimit: 4; fill: rgb(245,245,245); fill-rule: nonzero; opacity: 1;" vector-effect="non-scaling-stroke"  transform=" translate(-3581.5, -2751.65)" d="M 3096 2948 C 3105 2882 3149 2760 3183 2707 C 3223 2643 3318 2567 3394 2538 C 3475 2507 3674 2505 3759 2533 C 3925 2589 4045 2745 4066 2933 L 4073 2990 L 3979 2990 L 3885 2990 L 3873 2933 C 3849 2809 3777 2733 3661 2709 C 3473 2670 3313 2771 3293 2941 L 3287 2990 L 3188 2990 L 3090 2990 L 3096 2948 z" stroke-linecap="round" />
</g>
		<g transform="matrix(0.1 0 0 -0.1 -0.17 152.2)"  >
<path style="stroke: none; stroke-width: 1; stroke-dasharray: none; stroke-linecap: butt; stroke-dashoffset: 0; stroke-linejoin: miter; stroke-miterlimit: 4; fill: rgb(245,245,245); fill-rule: nonzero; opacity: 1;" vector-effect="non-scaling-stroke"  transform=" translate(-2598.55, -1642.5)" d="M 1410 2010 C 1374 1988 1341 1969 1336 1967 C 1324 1963 1408 1835 1465 1769 C 1491 1739 1522 1704 1534 1690 C 1575 1643 1695 1541 1767 1491 C 1910 1393 2038 1335 2255 1271 C 2416 1223 2785 1223 2945 1271 C 3231 1356 3397 1444 3580 1608 C 3686 1702 3843 1893 3862 1950 C 3865 1960 3842 1979 3796 2007 C 3757 2031 3720 2050 3713 2050 C 3707 2050 3686 2025 3667 1995 C 3453 1652 3022 1420 2600 1420 C 2455 1420 2349 1439 2170 1497 C 2100 1519 1972 1584 1897 1635 C 1815 1690 1688 1797 1658 1836 C 1645 1852 1625 1876 1612 1890 C 1599 1904 1568 1945 1543 1983 C 1519 2020 1494 2050 1487 2050 C 1480 2049 1446 2031 1410 2010 z" stroke-linecap="round" />
</g>
</g>
</g>
</svg>