<?xml version="1.0" standalone="no"?>
<!DOCTYPE svg PUBLIC "-//W3C//DTD SVG 20010904//EN" "http://www.w3.org/TR/2001/REC-SVG-20010904/DTD/svg10.dtd">
<svg xmlns="http://www.w3.org/2000/svg" version="1.0" width="504" height="623" viewBox="0 0 504.000000 623.000000" preserveAspectRatio="xMidYMid meet">

<g transform="translate(0.000000,623.000000) scale(0.100000,-0.100000)" fill="#ffa384" stroke="none">
<path d="M2499 6074 c-52 -59 -99 -112 -104 -118 -6 -6 -42 -47 -80 -91 -39 -44 -91 -102 -116 -130 -26 -27 -61 -67 -79 -87 -18 -21 -40 -38 -50 -38 -9 0 -37 14 -61 32 -24 18 -57 39 -74 48 -62 33 -170 93 -180 100 -5 4 -48 27 -95 50 -47 24 -96 51 -110 60 -14 10 -61 37 -105 60 -44 23 -112 60 -152 82 -39 21 -73 35 -76 31 -3 -4 -24 -57 -47 -118 -96 -249 -192 -494 -220 -560 -82 -199 -105 -320 -105 -565 0 -211 12 -299 62 -435 45 -123 45 -119 -34 -144 -106 -34 -271 -120 -329 -174 -29 -26 -64 -71 -78 -99 l-26 -52 0 -685 c1 -378 5 -717 10 -756 50 -372 142 -637 321 -928 117 -188 305 -401 464 -524 33 -26 62 -50 65 -54 16 -22 216 -147 328 -204 l92 -46 2 -287 3 -287 93 -3 92 -3 0 251 c0 137 4 250 8 250 8 0 162 -42 217 -59 91 -29 258 -45 465 -45 245 0 359 14 557 70 67 19 124 34 127 34 3 0 7 -111 8 -247 l3 -248 93 -3 92 -3 0 273 c0 150 3 282 6 294 3 13 27 31 67 49 91 41 300 174 392 248 110 89 284 264 358 361 248 325 387 660 442 1071 19 140 21 1468 3 1512 -49 115 -186 212 -406 289 -45 15 -82 33 -82 39 0 5 9 35 20 65 58 155 93 364 87 512 -7 189 -39 336 -120 540 -24 62 -84 214 -132 338 -48 124 -93 239 -100 255 -7 17 -16 40 -20 53 -9 30 -30 28 -95 -11 -30 -18 -93 -52 -140 -76 -47 -24 -89 -47 -95 -51 -5 -5 -37 -23 -70 -41 -33 -17 -80 -43 -105 -57 -25 -14 -94 -52 -155 -85 -60 -33 -126 -73 -146 -88 -20 -16 -46 -29 -57 -29 -12 0 -41 24 -74 62 -29 34 -60 69 -68 78 -8 9 -44 49 -80 90 -36 41 -88 99 -115 130 -28 30 -82 90 -119 133 -38 42 -72 77 -75 77 -4 0 -50 -48 -102 -106z m238 -327 c369 -410 401 -454 484 -679 64 -173 85 -386 55 -537 -14 -69 -15 -86 -4 -96 18 -18 137 -58 152 -52 23 9 49 137 54 263 8 219 -36 418 -140 629 -27 55 -59 115 -70 133 -16 26 -18 36 -8 47 15 18 143 95 265 160 50 26 95 51 100 55 6 5 51 29 100 55 50 26 104 56 122 67 38 23 34 27 83 -102 37 -97 116 -300 135 -345 72 -173 115 -364 115 -510 0 -83 -34 -288 -61 -370 -73 -218 -240 -388 -448 -458 -54 -18 -89 -22 -191 -22 -131 0 -260 24 -260 49 0 7 12 23 26 37 34 31 84 99 84 113 0 11 -129 96 -146 96 -5 0 -27 -22 -48 -48 -210 -250 -556 -324 -846 -180 -157 78 -296 244 -351 417 -39 123 -36 334 7 491 62 226 158 388 365 616 41 45 115 127 164 184 107 123 114 130 125 130 4 0 66 -64 137 -143z m-1252 -27 c55 -29 105 -56 110 -60 6 -4 46 -26 90 -49 119 -62 254 -144 259 -158 3 -6 -23 -64 -56 -129 -92 -176 -136 -315 -158 -494 -35 -293 41 -560 213 -747 51 -56 43 -65 -73 -89 -108 -21 -257 -15 -348 16 -141 47 -309 183 -371 300 -83 155 -121 323 -121 531 0 169 31 325 94 474 7 17 23 57 36 90 12 33 28 74 36 90 16 35 84 213 84 219 0 2 9 25 20 51 l20 47 32 -20 c18 -11 78 -43 133 -72z m-361 -1677 c101 -96 131 -118 221 -162 141 -69 195 -83 342 -89 175 -6 291 18 435 89 36 18 37 18 94 -7 162 -71 195 -78 384 -78 188 0 222 7 381 77 40 18 61 22 73 15 9 -5 67 -28 129 -51 l112 -41 175 -1 c158 0 181 2 240 23 167 60 285 134 391 244 50 52 38 50 137 19 108 -34 255 -107 295 -147 38 -37 42 -59 18 -93 -50 -70 -320 -178 -566 -227 -265 -52 -412 -74 -685 -101 -258 -25 -1148 -25 -1405 1 -99 10 -216 21 -260 26 -45 4 -90 10 -102 14 -11 4 -72 15 -134 26 -403 70 -697 175 -752 270 -17 28 -17 33 -3 55 24 36 74 71 162 112 62 28 219 88 243 92 3 1 36 -29 75 -66z m-382 -478 c53 -25 102 -45 111 -45 9 0 18 -4 21 -9 3 -5 18 -11 33 -14 16 -3 69 -17 118 -32 153 -44 313 -76 503 -99 241 -30 287 -36 385 -46 396 -41 1192 -31 1557 20 36 5 110 14 165 20 90 11 209 30 365 61 70 13 277 71 325 90 11 4 31 11 45 15 14 3 60 24 103 45 43 22 83 39 88 39 12 0 12 -959 -1 -1091 -10 -106 -34 -250 -51 -304 -126 -414 -261 -648 -525 -910 -291 -289 -650 -476 -1053 -545 -181 -32 -494 -29 -683 5 -595 107 -1104 483 -1392 1026 -58 111 -91 190 -136 334 -36 116 -37 120 -61 250 -20 101 -22 157 -26 658 -4 493 -3 577 10 577 3 0 47 -20 99 -45z"/>
<path d="M1130 2959 c0 -91 61 -233 131 -307 91 -95 175 -131 319 -139 111 -6 189 6 264 42 136 64 240 218 260 388 l6 47 -99 0 -98 0 -6 -49 c-10 -85 -57 -160 -127 -203 -112 -68 -328 -36 -393 60 -32 46 -67 134 -67 167 0 25 -1 25 -95 25 l-95 0 0 -31z"/>
<path d="M3096 2948 c9 -66 53 -188 87 -241 40 -64 135 -140 211 -169 81 -31 280 -33 365 -5 166 56 286 212 307 400 l7 57 -94 0 -94 0 -12 -57 c-24 -124 -96 -200 -212 -224 -188 -39 -348 62 -368 232 l-6 49 -99 0 -98 0 6 -42z"/>
<path d="M1410 2010 c-36 -22 -69 -41 -74 -43 -12 -4 72 -132 129 -198 26 -30 57 -65 69 -79 41 -47 161 -149 233 -199 143 -98 271 -156 488 -220 161 -48 530 -48 690 0 286 85 452 173 635 337 106 94 263 285 282 342 3 10 -20 29 -66 57 -39 24 -76 43 -83 43 -6 0 -27 -25 -46 -55 -214 -343 -645 -575 -1067 -575 -145 0 -251 19 -430 77 -70 22 -198 87 -273 138 -82 55 -209 162 -239 201 -13 16 -33 40 -46 54 -13 14 -44 55 -69 93 -24 37 -49 67 -56 67 -7 -1 -41 -19 -77 -40z"/>
</g>
</svg>
